%TF.GenerationSoftware,KiCad,Pcbnew,(5.1.9)-1*%
%TF.CreationDate,2021-03-20T21:52:51+03:00*%
%TF.ProjectId,Canl_Yay_n,43616e6c-3159-4617-9931-6e2e6b696361,rev?*%
%TF.SameCoordinates,Original*%
%TF.FileFunction,Legend,Top*%
%TF.FilePolarity,Positive*%
%FSLAX46Y46*%
G04 Gerber Fmt 4.6, Leading zero omitted, Abs format (unit mm)*
G04 Created by KiCad (PCBNEW (5.1.9)-1) date 2021-03-20 21:52:51*
%MOMM*%
%LPD*%
G01*
G04 APERTURE LIST*
%ADD10C,0.120000*%
%ADD11C,0.150000*%
G04 APERTURE END LIST*
D10*
%TO.C,C1*%
X81480000Y-37418354D02*
X80480000Y-37418354D01*
X80980000Y-36918354D02*
X80980000Y-37918354D01*
X78704000Y-47479000D02*
X77506000Y-47479000D01*
X78967000Y-47439000D02*
X77243000Y-47439000D01*
X79167000Y-47399000D02*
X77043000Y-47399000D01*
X79335000Y-47359000D02*
X76875000Y-47359000D01*
X79483000Y-47319000D02*
X76727000Y-47319000D01*
X79615000Y-47279000D02*
X76595000Y-47279000D01*
X79735000Y-47239000D02*
X76475000Y-47239000D01*
X79847000Y-47199000D02*
X76363000Y-47199000D01*
X79951000Y-47159000D02*
X76259000Y-47159000D01*
X80049000Y-47119000D02*
X76161000Y-47119000D01*
X80142000Y-47079000D02*
X76068000Y-47079000D01*
X80230000Y-47039000D02*
X75980000Y-47039000D01*
X80314000Y-46999000D02*
X75896000Y-46999000D01*
X80394000Y-46959000D02*
X75816000Y-46959000D01*
X80470000Y-46919000D02*
X75740000Y-46919000D01*
X80544000Y-46879000D02*
X75666000Y-46879000D01*
X80615000Y-46839000D02*
X75595000Y-46839000D01*
X80684000Y-46799000D02*
X75526000Y-46799000D01*
X80750000Y-46759000D02*
X75460000Y-46759000D01*
X80814000Y-46719000D02*
X75396000Y-46719000D01*
X80875000Y-46679000D02*
X75335000Y-46679000D01*
X80935000Y-46639000D02*
X75275000Y-46639000D01*
X80994000Y-46599000D02*
X75216000Y-46599000D01*
X81050000Y-46559000D02*
X75160000Y-46559000D01*
X81105000Y-46519000D02*
X75105000Y-46519000D01*
X81159000Y-46479000D02*
X75051000Y-46479000D01*
X81211000Y-46439000D02*
X74999000Y-46439000D01*
X81261000Y-46399000D02*
X74949000Y-46399000D01*
X81311000Y-46359000D02*
X74899000Y-46359000D01*
X81359000Y-46319000D02*
X74851000Y-46319000D01*
X81406000Y-46279000D02*
X74804000Y-46279000D01*
X81452000Y-46239000D02*
X74758000Y-46239000D01*
X81497000Y-46199000D02*
X74713000Y-46199000D01*
X81541000Y-46159000D02*
X74669000Y-46159000D01*
X81583000Y-46119000D02*
X74627000Y-46119000D01*
X81625000Y-46079000D02*
X74585000Y-46079000D01*
X81666000Y-46039000D02*
X74544000Y-46039000D01*
X81706000Y-45999000D02*
X74504000Y-45999000D01*
X81745000Y-45959000D02*
X74465000Y-45959000D01*
X81784000Y-45919000D02*
X74426000Y-45919000D01*
X81821000Y-45879000D02*
X74389000Y-45879000D01*
X81858000Y-45839000D02*
X74352000Y-45839000D01*
X81894000Y-45799000D02*
X74316000Y-45799000D01*
X81929000Y-45759000D02*
X74281000Y-45759000D01*
X81963000Y-45719000D02*
X74247000Y-45719000D01*
X81997000Y-45679000D02*
X74213000Y-45679000D01*
X82030000Y-45639000D02*
X74180000Y-45639000D01*
X82062000Y-45599000D02*
X74148000Y-45599000D01*
X82094000Y-45559000D02*
X74116000Y-45559000D01*
X82125000Y-45519000D02*
X74085000Y-45519000D01*
X82155000Y-45479000D02*
X74055000Y-45479000D01*
X82185000Y-45439000D02*
X74025000Y-45439000D01*
X82215000Y-45399000D02*
X73995000Y-45399000D01*
X82243000Y-45359000D02*
X73967000Y-45359000D01*
X82271000Y-45319000D02*
X73939000Y-45319000D01*
X82299000Y-45279000D02*
X73911000Y-45279000D01*
X82326000Y-45239000D02*
X73884000Y-45239000D01*
X82352000Y-45199000D02*
X73858000Y-45199000D01*
X82378000Y-45159000D02*
X73832000Y-45159000D01*
X82403000Y-45119000D02*
X73807000Y-45119000D01*
X82428000Y-45079000D02*
X73782000Y-45079000D01*
X82452000Y-45039000D02*
X73758000Y-45039000D01*
X82476000Y-44999000D02*
X73734000Y-44999000D01*
X82500000Y-44959000D02*
X73710000Y-44959000D01*
X82522000Y-44919000D02*
X73688000Y-44919000D01*
X82545000Y-44879000D02*
X73665000Y-44879000D01*
X82567000Y-44839000D02*
X73643000Y-44839000D01*
X82588000Y-44799000D02*
X73622000Y-44799000D01*
X82609000Y-44759000D02*
X73601000Y-44759000D01*
X82630000Y-44719000D02*
X73580000Y-44719000D01*
X77065000Y-44679000D02*
X73560000Y-44679000D01*
X82650000Y-44679000D02*
X79145000Y-44679000D01*
X77065000Y-44639000D02*
X73541000Y-44639000D01*
X82669000Y-44639000D02*
X79145000Y-44639000D01*
X77065000Y-44599000D02*
X73521000Y-44599000D01*
X82689000Y-44599000D02*
X79145000Y-44599000D01*
X77065000Y-44559000D02*
X73502000Y-44559000D01*
X82708000Y-44559000D02*
X79145000Y-44559000D01*
X77065000Y-44519000D02*
X73484000Y-44519000D01*
X82726000Y-44519000D02*
X79145000Y-44519000D01*
X77065000Y-44479000D02*
X73466000Y-44479000D01*
X82744000Y-44479000D02*
X79145000Y-44479000D01*
X77065000Y-44439000D02*
X73448000Y-44439000D01*
X82762000Y-44439000D02*
X79145000Y-44439000D01*
X77065000Y-44399000D02*
X73431000Y-44399000D01*
X82779000Y-44399000D02*
X79145000Y-44399000D01*
X77065000Y-44359000D02*
X73415000Y-44359000D01*
X82795000Y-44359000D02*
X79145000Y-44359000D01*
X77065000Y-44319000D02*
X73398000Y-44319000D01*
X82812000Y-44319000D02*
X79145000Y-44319000D01*
X77065000Y-44279000D02*
X73382000Y-44279000D01*
X82828000Y-44279000D02*
X79145000Y-44279000D01*
X77065000Y-44239000D02*
X73367000Y-44239000D01*
X82843000Y-44239000D02*
X79145000Y-44239000D01*
X77065000Y-44199000D02*
X73351000Y-44199000D01*
X82859000Y-44199000D02*
X79145000Y-44199000D01*
X77065000Y-44159000D02*
X73337000Y-44159000D01*
X82873000Y-44159000D02*
X79145000Y-44159000D01*
X77065000Y-44119000D02*
X73322000Y-44119000D01*
X82888000Y-44119000D02*
X79145000Y-44119000D01*
X77065000Y-44079000D02*
X73308000Y-44079000D01*
X82902000Y-44079000D02*
X79145000Y-44079000D01*
X77065000Y-44039000D02*
X73294000Y-44039000D01*
X82916000Y-44039000D02*
X79145000Y-44039000D01*
X77065000Y-43999000D02*
X73281000Y-43999000D01*
X82929000Y-43999000D02*
X79145000Y-43999000D01*
X77065000Y-43959000D02*
X73268000Y-43959000D01*
X82942000Y-43959000D02*
X79145000Y-43959000D01*
X77065000Y-43919000D02*
X73255000Y-43919000D01*
X82955000Y-43919000D02*
X79145000Y-43919000D01*
X77065000Y-43879000D02*
X73243000Y-43879000D01*
X82967000Y-43879000D02*
X79145000Y-43879000D01*
X77065000Y-43839000D02*
X73231000Y-43839000D01*
X82979000Y-43839000D02*
X79145000Y-43839000D01*
X77065000Y-43799000D02*
X73220000Y-43799000D01*
X82990000Y-43799000D02*
X79145000Y-43799000D01*
X77065000Y-43759000D02*
X73208000Y-43759000D01*
X83002000Y-43759000D02*
X79145000Y-43759000D01*
X77065000Y-43719000D02*
X73198000Y-43719000D01*
X83012000Y-43719000D02*
X79145000Y-43719000D01*
X77065000Y-43679000D02*
X73187000Y-43679000D01*
X83023000Y-43679000D02*
X79145000Y-43679000D01*
X77065000Y-43639000D02*
X73177000Y-43639000D01*
X83033000Y-43639000D02*
X79145000Y-43639000D01*
X77065000Y-43599000D02*
X73167000Y-43599000D01*
X83043000Y-43599000D02*
X79145000Y-43599000D01*
X77065000Y-43559000D02*
X73158000Y-43559000D01*
X83052000Y-43559000D02*
X79145000Y-43559000D01*
X77065000Y-43519000D02*
X73149000Y-43519000D01*
X83061000Y-43519000D02*
X79145000Y-43519000D01*
X77065000Y-43479000D02*
X73140000Y-43479000D01*
X83070000Y-43479000D02*
X79145000Y-43479000D01*
X77065000Y-43439000D02*
X73131000Y-43439000D01*
X83079000Y-43439000D02*
X79145000Y-43439000D01*
X77065000Y-43399000D02*
X73123000Y-43399000D01*
X83087000Y-43399000D02*
X79145000Y-43399000D01*
X77065000Y-43359000D02*
X73115000Y-43359000D01*
X83095000Y-43359000D02*
X79145000Y-43359000D01*
X77065000Y-43319000D02*
X73108000Y-43319000D01*
X83102000Y-43319000D02*
X79145000Y-43319000D01*
X77065000Y-43279000D02*
X73101000Y-43279000D01*
X83109000Y-43279000D02*
X79145000Y-43279000D01*
X77065000Y-43239000D02*
X73094000Y-43239000D01*
X83116000Y-43239000D02*
X79145000Y-43239000D01*
X77065000Y-43199000D02*
X73087000Y-43199000D01*
X83123000Y-43199000D02*
X79145000Y-43199000D01*
X77065000Y-43159000D02*
X73081000Y-43159000D01*
X83129000Y-43159000D02*
X79145000Y-43159000D01*
X77065000Y-43119000D02*
X73075000Y-43119000D01*
X83135000Y-43119000D02*
X79145000Y-43119000D01*
X77065000Y-43078000D02*
X73070000Y-43078000D01*
X83140000Y-43078000D02*
X79145000Y-43078000D01*
X77065000Y-43038000D02*
X73065000Y-43038000D01*
X83145000Y-43038000D02*
X79145000Y-43038000D01*
X77065000Y-42998000D02*
X73060000Y-42998000D01*
X83150000Y-42998000D02*
X79145000Y-42998000D01*
X77065000Y-42958000D02*
X73055000Y-42958000D01*
X83155000Y-42958000D02*
X79145000Y-42958000D01*
X77065000Y-42918000D02*
X73051000Y-42918000D01*
X83159000Y-42918000D02*
X79145000Y-42918000D01*
X77065000Y-42878000D02*
X73047000Y-42878000D01*
X83163000Y-42878000D02*
X79145000Y-42878000D01*
X77065000Y-42838000D02*
X73043000Y-42838000D01*
X83167000Y-42838000D02*
X79145000Y-42838000D01*
X77065000Y-42798000D02*
X73040000Y-42798000D01*
X83170000Y-42798000D02*
X79145000Y-42798000D01*
X77065000Y-42758000D02*
X73037000Y-42758000D01*
X83173000Y-42758000D02*
X79145000Y-42758000D01*
X77065000Y-42718000D02*
X73035000Y-42718000D01*
X83175000Y-42718000D02*
X79145000Y-42718000D01*
X77065000Y-42678000D02*
X73032000Y-42678000D01*
X83178000Y-42678000D02*
X79145000Y-42678000D01*
X77065000Y-42638000D02*
X73030000Y-42638000D01*
X83180000Y-42638000D02*
X79145000Y-42638000D01*
X83182000Y-42598000D02*
X73028000Y-42598000D01*
X83183000Y-42558000D02*
X73027000Y-42558000D01*
X83184000Y-42518000D02*
X73026000Y-42518000D01*
X83185000Y-42478000D02*
X73025000Y-42478000D01*
X83185000Y-42438000D02*
X73025000Y-42438000D01*
X83185000Y-42398000D02*
X73025000Y-42398000D01*
X83225000Y-42398000D02*
G75*
G03*
X83225000Y-42398000I-5120000J0D01*
G01*
%TO.C,C2*%
X69803354Y-22406000D02*
X69803354Y-23406000D01*
X69303354Y-22906000D02*
X70303354Y-22906000D01*
X79864000Y-25182000D02*
X79864000Y-26380000D01*
X79824000Y-24919000D02*
X79824000Y-26643000D01*
X79784000Y-24719000D02*
X79784000Y-26843000D01*
X79744000Y-24551000D02*
X79744000Y-27011000D01*
X79704000Y-24403000D02*
X79704000Y-27159000D01*
X79664000Y-24271000D02*
X79664000Y-27291000D01*
X79624000Y-24151000D02*
X79624000Y-27411000D01*
X79584000Y-24039000D02*
X79584000Y-27523000D01*
X79544000Y-23935000D02*
X79544000Y-27627000D01*
X79504000Y-23837000D02*
X79504000Y-27725000D01*
X79464000Y-23744000D02*
X79464000Y-27818000D01*
X79424000Y-23656000D02*
X79424000Y-27906000D01*
X79384000Y-23572000D02*
X79384000Y-27990000D01*
X79344000Y-23492000D02*
X79344000Y-28070000D01*
X79304000Y-23416000D02*
X79304000Y-28146000D01*
X79264000Y-23342000D02*
X79264000Y-28220000D01*
X79224000Y-23271000D02*
X79224000Y-28291000D01*
X79184000Y-23202000D02*
X79184000Y-28360000D01*
X79144000Y-23136000D02*
X79144000Y-28426000D01*
X79104000Y-23072000D02*
X79104000Y-28490000D01*
X79064000Y-23011000D02*
X79064000Y-28551000D01*
X79024000Y-22951000D02*
X79024000Y-28611000D01*
X78984000Y-22892000D02*
X78984000Y-28670000D01*
X78944000Y-22836000D02*
X78944000Y-28726000D01*
X78904000Y-22781000D02*
X78904000Y-28781000D01*
X78864000Y-22727000D02*
X78864000Y-28835000D01*
X78824000Y-22675000D02*
X78824000Y-28887000D01*
X78784000Y-22625000D02*
X78784000Y-28937000D01*
X78744000Y-22575000D02*
X78744000Y-28987000D01*
X78704000Y-22527000D02*
X78704000Y-29035000D01*
X78664000Y-22480000D02*
X78664000Y-29082000D01*
X78624000Y-22434000D02*
X78624000Y-29128000D01*
X78584000Y-22389000D02*
X78584000Y-29173000D01*
X78544000Y-22345000D02*
X78544000Y-29217000D01*
X78504000Y-22303000D02*
X78504000Y-29259000D01*
X78464000Y-22261000D02*
X78464000Y-29301000D01*
X78424000Y-22220000D02*
X78424000Y-29342000D01*
X78384000Y-22180000D02*
X78384000Y-29382000D01*
X78344000Y-22141000D02*
X78344000Y-29421000D01*
X78304000Y-22102000D02*
X78304000Y-29460000D01*
X78264000Y-22065000D02*
X78264000Y-29497000D01*
X78224000Y-22028000D02*
X78224000Y-29534000D01*
X78184000Y-21992000D02*
X78184000Y-29570000D01*
X78144000Y-21957000D02*
X78144000Y-29605000D01*
X78104000Y-21923000D02*
X78104000Y-29639000D01*
X78064000Y-21889000D02*
X78064000Y-29673000D01*
X78024000Y-21856000D02*
X78024000Y-29706000D01*
X77984000Y-21824000D02*
X77984000Y-29738000D01*
X77944000Y-21792000D02*
X77944000Y-29770000D01*
X77904000Y-21761000D02*
X77904000Y-29801000D01*
X77864000Y-21731000D02*
X77864000Y-29831000D01*
X77824000Y-21701000D02*
X77824000Y-29861000D01*
X77784000Y-21671000D02*
X77784000Y-29891000D01*
X77744000Y-21643000D02*
X77744000Y-29919000D01*
X77704000Y-21615000D02*
X77704000Y-29947000D01*
X77664000Y-21587000D02*
X77664000Y-29975000D01*
X77624000Y-21560000D02*
X77624000Y-30002000D01*
X77584000Y-21534000D02*
X77584000Y-30028000D01*
X77544000Y-21508000D02*
X77544000Y-30054000D01*
X77504000Y-21483000D02*
X77504000Y-30079000D01*
X77464000Y-21458000D02*
X77464000Y-30104000D01*
X77424000Y-21434000D02*
X77424000Y-30128000D01*
X77384000Y-21410000D02*
X77384000Y-30152000D01*
X77344000Y-21386000D02*
X77344000Y-30176000D01*
X77304000Y-21364000D02*
X77304000Y-30198000D01*
X77264000Y-21341000D02*
X77264000Y-30221000D01*
X77224000Y-21319000D02*
X77224000Y-30243000D01*
X77184000Y-21298000D02*
X77184000Y-30264000D01*
X77144000Y-21277000D02*
X77144000Y-30285000D01*
X77104000Y-21256000D02*
X77104000Y-30306000D01*
X77064000Y-26821000D02*
X77064000Y-30326000D01*
X77064000Y-21236000D02*
X77064000Y-24741000D01*
X77024000Y-26821000D02*
X77024000Y-30345000D01*
X77024000Y-21217000D02*
X77024000Y-24741000D01*
X76984000Y-26821000D02*
X76984000Y-30365000D01*
X76984000Y-21197000D02*
X76984000Y-24741000D01*
X76944000Y-26821000D02*
X76944000Y-30384000D01*
X76944000Y-21178000D02*
X76944000Y-24741000D01*
X76904000Y-26821000D02*
X76904000Y-30402000D01*
X76904000Y-21160000D02*
X76904000Y-24741000D01*
X76864000Y-26821000D02*
X76864000Y-30420000D01*
X76864000Y-21142000D02*
X76864000Y-24741000D01*
X76824000Y-26821000D02*
X76824000Y-30438000D01*
X76824000Y-21124000D02*
X76824000Y-24741000D01*
X76784000Y-26821000D02*
X76784000Y-30455000D01*
X76784000Y-21107000D02*
X76784000Y-24741000D01*
X76744000Y-26821000D02*
X76744000Y-30471000D01*
X76744000Y-21091000D02*
X76744000Y-24741000D01*
X76704000Y-26821000D02*
X76704000Y-30488000D01*
X76704000Y-21074000D02*
X76704000Y-24741000D01*
X76664000Y-26821000D02*
X76664000Y-30504000D01*
X76664000Y-21058000D02*
X76664000Y-24741000D01*
X76624000Y-26821000D02*
X76624000Y-30519000D01*
X76624000Y-21043000D02*
X76624000Y-24741000D01*
X76584000Y-26821000D02*
X76584000Y-30535000D01*
X76584000Y-21027000D02*
X76584000Y-24741000D01*
X76544000Y-26821000D02*
X76544000Y-30549000D01*
X76544000Y-21013000D02*
X76544000Y-24741000D01*
X76504000Y-26821000D02*
X76504000Y-30564000D01*
X76504000Y-20998000D02*
X76504000Y-24741000D01*
X76464000Y-26821000D02*
X76464000Y-30578000D01*
X76464000Y-20984000D02*
X76464000Y-24741000D01*
X76424000Y-26821000D02*
X76424000Y-30592000D01*
X76424000Y-20970000D02*
X76424000Y-24741000D01*
X76384000Y-26821000D02*
X76384000Y-30605000D01*
X76384000Y-20957000D02*
X76384000Y-24741000D01*
X76344000Y-26821000D02*
X76344000Y-30618000D01*
X76344000Y-20944000D02*
X76344000Y-24741000D01*
X76304000Y-26821000D02*
X76304000Y-30631000D01*
X76304000Y-20931000D02*
X76304000Y-24741000D01*
X76264000Y-26821000D02*
X76264000Y-30643000D01*
X76264000Y-20919000D02*
X76264000Y-24741000D01*
X76224000Y-26821000D02*
X76224000Y-30655000D01*
X76224000Y-20907000D02*
X76224000Y-24741000D01*
X76184000Y-26821000D02*
X76184000Y-30666000D01*
X76184000Y-20896000D02*
X76184000Y-24741000D01*
X76144000Y-26821000D02*
X76144000Y-30678000D01*
X76144000Y-20884000D02*
X76144000Y-24741000D01*
X76104000Y-26821000D02*
X76104000Y-30688000D01*
X76104000Y-20874000D02*
X76104000Y-24741000D01*
X76064000Y-26821000D02*
X76064000Y-30699000D01*
X76064000Y-20863000D02*
X76064000Y-24741000D01*
X76024000Y-26821000D02*
X76024000Y-30709000D01*
X76024000Y-20853000D02*
X76024000Y-24741000D01*
X75984000Y-26821000D02*
X75984000Y-30719000D01*
X75984000Y-20843000D02*
X75984000Y-24741000D01*
X75944000Y-26821000D02*
X75944000Y-30728000D01*
X75944000Y-20834000D02*
X75944000Y-24741000D01*
X75904000Y-26821000D02*
X75904000Y-30737000D01*
X75904000Y-20825000D02*
X75904000Y-24741000D01*
X75864000Y-26821000D02*
X75864000Y-30746000D01*
X75864000Y-20816000D02*
X75864000Y-24741000D01*
X75824000Y-26821000D02*
X75824000Y-30755000D01*
X75824000Y-20807000D02*
X75824000Y-24741000D01*
X75784000Y-26821000D02*
X75784000Y-30763000D01*
X75784000Y-20799000D02*
X75784000Y-24741000D01*
X75744000Y-26821000D02*
X75744000Y-30771000D01*
X75744000Y-20791000D02*
X75744000Y-24741000D01*
X75704000Y-26821000D02*
X75704000Y-30778000D01*
X75704000Y-20784000D02*
X75704000Y-24741000D01*
X75664000Y-26821000D02*
X75664000Y-30785000D01*
X75664000Y-20777000D02*
X75664000Y-24741000D01*
X75624000Y-26821000D02*
X75624000Y-30792000D01*
X75624000Y-20770000D02*
X75624000Y-24741000D01*
X75584000Y-26821000D02*
X75584000Y-30799000D01*
X75584000Y-20763000D02*
X75584000Y-24741000D01*
X75544000Y-26821000D02*
X75544000Y-30805000D01*
X75544000Y-20757000D02*
X75544000Y-24741000D01*
X75504000Y-26821000D02*
X75504000Y-30811000D01*
X75504000Y-20751000D02*
X75504000Y-24741000D01*
X75463000Y-26821000D02*
X75463000Y-30816000D01*
X75463000Y-20746000D02*
X75463000Y-24741000D01*
X75423000Y-26821000D02*
X75423000Y-30821000D01*
X75423000Y-20741000D02*
X75423000Y-24741000D01*
X75383000Y-26821000D02*
X75383000Y-30826000D01*
X75383000Y-20736000D02*
X75383000Y-24741000D01*
X75343000Y-26821000D02*
X75343000Y-30831000D01*
X75343000Y-20731000D02*
X75343000Y-24741000D01*
X75303000Y-26821000D02*
X75303000Y-30835000D01*
X75303000Y-20727000D02*
X75303000Y-24741000D01*
X75263000Y-26821000D02*
X75263000Y-30839000D01*
X75263000Y-20723000D02*
X75263000Y-24741000D01*
X75223000Y-26821000D02*
X75223000Y-30843000D01*
X75223000Y-20719000D02*
X75223000Y-24741000D01*
X75183000Y-26821000D02*
X75183000Y-30846000D01*
X75183000Y-20716000D02*
X75183000Y-24741000D01*
X75143000Y-26821000D02*
X75143000Y-30849000D01*
X75143000Y-20713000D02*
X75143000Y-24741000D01*
X75103000Y-26821000D02*
X75103000Y-30851000D01*
X75103000Y-20711000D02*
X75103000Y-24741000D01*
X75063000Y-26821000D02*
X75063000Y-30854000D01*
X75063000Y-20708000D02*
X75063000Y-24741000D01*
X75023000Y-26821000D02*
X75023000Y-30856000D01*
X75023000Y-20706000D02*
X75023000Y-24741000D01*
X74983000Y-20704000D02*
X74983000Y-30858000D01*
X74943000Y-20703000D02*
X74943000Y-30859000D01*
X74903000Y-20702000D02*
X74903000Y-30860000D01*
X74863000Y-20701000D02*
X74863000Y-30861000D01*
X74823000Y-20701000D02*
X74823000Y-30861000D01*
X74783000Y-20701000D02*
X74783000Y-30861000D01*
X79903000Y-25781000D02*
G75*
G03*
X79903000Y-25781000I-5120000J0D01*
G01*
%TO.C,C3*%
X68640000Y-25527000D02*
G75*
G03*
X68640000Y-25527000I-5120000J0D01*
G01*
X63520000Y-30607000D02*
X63520000Y-20447000D01*
X63480000Y-30607000D02*
X63480000Y-20447000D01*
X63440000Y-30607000D02*
X63440000Y-20447000D01*
X63400000Y-30606000D02*
X63400000Y-20448000D01*
X63360000Y-30605000D02*
X63360000Y-20449000D01*
X63320000Y-30604000D02*
X63320000Y-20450000D01*
X63280000Y-30602000D02*
X63280000Y-26567000D01*
X63280000Y-24487000D02*
X63280000Y-20452000D01*
X63240000Y-30600000D02*
X63240000Y-26567000D01*
X63240000Y-24487000D02*
X63240000Y-20454000D01*
X63200000Y-30597000D02*
X63200000Y-26567000D01*
X63200000Y-24487000D02*
X63200000Y-20457000D01*
X63160000Y-30595000D02*
X63160000Y-26567000D01*
X63160000Y-24487000D02*
X63160000Y-20459000D01*
X63120000Y-30592000D02*
X63120000Y-26567000D01*
X63120000Y-24487000D02*
X63120000Y-20462000D01*
X63080000Y-30589000D02*
X63080000Y-26567000D01*
X63080000Y-24487000D02*
X63080000Y-20465000D01*
X63040000Y-30585000D02*
X63040000Y-26567000D01*
X63040000Y-24487000D02*
X63040000Y-20469000D01*
X63000000Y-30581000D02*
X63000000Y-26567000D01*
X63000000Y-24487000D02*
X63000000Y-20473000D01*
X62960000Y-30577000D02*
X62960000Y-26567000D01*
X62960000Y-24487000D02*
X62960000Y-20477000D01*
X62920000Y-30572000D02*
X62920000Y-26567000D01*
X62920000Y-24487000D02*
X62920000Y-20482000D01*
X62880000Y-30567000D02*
X62880000Y-26567000D01*
X62880000Y-24487000D02*
X62880000Y-20487000D01*
X62840000Y-30562000D02*
X62840000Y-26567000D01*
X62840000Y-24487000D02*
X62840000Y-20492000D01*
X62799000Y-30557000D02*
X62799000Y-26567000D01*
X62799000Y-24487000D02*
X62799000Y-20497000D01*
X62759000Y-30551000D02*
X62759000Y-26567000D01*
X62759000Y-24487000D02*
X62759000Y-20503000D01*
X62719000Y-30545000D02*
X62719000Y-26567000D01*
X62719000Y-24487000D02*
X62719000Y-20509000D01*
X62679000Y-30538000D02*
X62679000Y-26567000D01*
X62679000Y-24487000D02*
X62679000Y-20516000D01*
X62639000Y-30531000D02*
X62639000Y-26567000D01*
X62639000Y-24487000D02*
X62639000Y-20523000D01*
X62599000Y-30524000D02*
X62599000Y-26567000D01*
X62599000Y-24487000D02*
X62599000Y-20530000D01*
X62559000Y-30517000D02*
X62559000Y-26567000D01*
X62559000Y-24487000D02*
X62559000Y-20537000D01*
X62519000Y-30509000D02*
X62519000Y-26567000D01*
X62519000Y-24487000D02*
X62519000Y-20545000D01*
X62479000Y-30501000D02*
X62479000Y-26567000D01*
X62479000Y-24487000D02*
X62479000Y-20553000D01*
X62439000Y-30492000D02*
X62439000Y-26567000D01*
X62439000Y-24487000D02*
X62439000Y-20562000D01*
X62399000Y-30483000D02*
X62399000Y-26567000D01*
X62399000Y-24487000D02*
X62399000Y-20571000D01*
X62359000Y-30474000D02*
X62359000Y-26567000D01*
X62359000Y-24487000D02*
X62359000Y-20580000D01*
X62319000Y-30465000D02*
X62319000Y-26567000D01*
X62319000Y-24487000D02*
X62319000Y-20589000D01*
X62279000Y-30455000D02*
X62279000Y-26567000D01*
X62279000Y-24487000D02*
X62279000Y-20599000D01*
X62239000Y-30445000D02*
X62239000Y-26567000D01*
X62239000Y-24487000D02*
X62239000Y-20609000D01*
X62199000Y-30434000D02*
X62199000Y-26567000D01*
X62199000Y-24487000D02*
X62199000Y-20620000D01*
X62159000Y-30424000D02*
X62159000Y-26567000D01*
X62159000Y-24487000D02*
X62159000Y-20630000D01*
X62119000Y-30412000D02*
X62119000Y-26567000D01*
X62119000Y-24487000D02*
X62119000Y-20642000D01*
X62079000Y-30401000D02*
X62079000Y-26567000D01*
X62079000Y-24487000D02*
X62079000Y-20653000D01*
X62039000Y-30389000D02*
X62039000Y-26567000D01*
X62039000Y-24487000D02*
X62039000Y-20665000D01*
X61999000Y-30377000D02*
X61999000Y-26567000D01*
X61999000Y-24487000D02*
X61999000Y-20677000D01*
X61959000Y-30364000D02*
X61959000Y-26567000D01*
X61959000Y-24487000D02*
X61959000Y-20690000D01*
X61919000Y-30351000D02*
X61919000Y-26567000D01*
X61919000Y-24487000D02*
X61919000Y-20703000D01*
X61879000Y-30338000D02*
X61879000Y-26567000D01*
X61879000Y-24487000D02*
X61879000Y-20716000D01*
X61839000Y-30324000D02*
X61839000Y-26567000D01*
X61839000Y-24487000D02*
X61839000Y-20730000D01*
X61799000Y-30310000D02*
X61799000Y-26567000D01*
X61799000Y-24487000D02*
X61799000Y-20744000D01*
X61759000Y-30295000D02*
X61759000Y-26567000D01*
X61759000Y-24487000D02*
X61759000Y-20759000D01*
X61719000Y-30281000D02*
X61719000Y-26567000D01*
X61719000Y-24487000D02*
X61719000Y-20773000D01*
X61679000Y-30265000D02*
X61679000Y-26567000D01*
X61679000Y-24487000D02*
X61679000Y-20789000D01*
X61639000Y-30250000D02*
X61639000Y-26567000D01*
X61639000Y-24487000D02*
X61639000Y-20804000D01*
X61599000Y-30234000D02*
X61599000Y-26567000D01*
X61599000Y-24487000D02*
X61599000Y-20820000D01*
X61559000Y-30217000D02*
X61559000Y-26567000D01*
X61559000Y-24487000D02*
X61559000Y-20837000D01*
X61519000Y-30201000D02*
X61519000Y-26567000D01*
X61519000Y-24487000D02*
X61519000Y-20853000D01*
X61479000Y-30184000D02*
X61479000Y-26567000D01*
X61479000Y-24487000D02*
X61479000Y-20870000D01*
X61439000Y-30166000D02*
X61439000Y-26567000D01*
X61439000Y-24487000D02*
X61439000Y-20888000D01*
X61399000Y-30148000D02*
X61399000Y-26567000D01*
X61399000Y-24487000D02*
X61399000Y-20906000D01*
X61359000Y-30130000D02*
X61359000Y-26567000D01*
X61359000Y-24487000D02*
X61359000Y-20924000D01*
X61319000Y-30111000D02*
X61319000Y-26567000D01*
X61319000Y-24487000D02*
X61319000Y-20943000D01*
X61279000Y-30091000D02*
X61279000Y-26567000D01*
X61279000Y-24487000D02*
X61279000Y-20963000D01*
X61239000Y-30072000D02*
X61239000Y-26567000D01*
X61239000Y-24487000D02*
X61239000Y-20982000D01*
X61199000Y-30052000D02*
X61199000Y-21002000D01*
X61159000Y-30031000D02*
X61159000Y-21023000D01*
X61119000Y-30010000D02*
X61119000Y-21044000D01*
X61079000Y-29989000D02*
X61079000Y-21065000D01*
X61039000Y-29967000D02*
X61039000Y-21087000D01*
X60999000Y-29944000D02*
X60999000Y-21110000D01*
X60959000Y-29922000D02*
X60959000Y-21132000D01*
X60919000Y-29898000D02*
X60919000Y-21156000D01*
X60879000Y-29874000D02*
X60879000Y-21180000D01*
X60839000Y-29850000D02*
X60839000Y-21204000D01*
X60799000Y-29825000D02*
X60799000Y-21229000D01*
X60759000Y-29800000D02*
X60759000Y-21254000D01*
X60719000Y-29774000D02*
X60719000Y-21280000D01*
X60679000Y-29748000D02*
X60679000Y-21306000D01*
X60639000Y-29721000D02*
X60639000Y-21333000D01*
X60599000Y-29693000D02*
X60599000Y-21361000D01*
X60559000Y-29665000D02*
X60559000Y-21389000D01*
X60519000Y-29637000D02*
X60519000Y-21417000D01*
X60479000Y-29607000D02*
X60479000Y-21447000D01*
X60439000Y-29577000D02*
X60439000Y-21477000D01*
X60399000Y-29547000D02*
X60399000Y-21507000D01*
X60359000Y-29516000D02*
X60359000Y-21538000D01*
X60319000Y-29484000D02*
X60319000Y-21570000D01*
X60279000Y-29452000D02*
X60279000Y-21602000D01*
X60239000Y-29419000D02*
X60239000Y-21635000D01*
X60199000Y-29385000D02*
X60199000Y-21669000D01*
X60159000Y-29351000D02*
X60159000Y-21703000D01*
X60119000Y-29316000D02*
X60119000Y-21738000D01*
X60079000Y-29280000D02*
X60079000Y-21774000D01*
X60039000Y-29243000D02*
X60039000Y-21811000D01*
X59999000Y-29206000D02*
X59999000Y-21848000D01*
X59959000Y-29167000D02*
X59959000Y-21887000D01*
X59919000Y-29128000D02*
X59919000Y-21926000D01*
X59879000Y-29088000D02*
X59879000Y-21966000D01*
X59839000Y-29047000D02*
X59839000Y-22007000D01*
X59799000Y-29005000D02*
X59799000Y-22049000D01*
X59759000Y-28963000D02*
X59759000Y-22091000D01*
X59719000Y-28919000D02*
X59719000Y-22135000D01*
X59679000Y-28874000D02*
X59679000Y-22180000D01*
X59639000Y-28828000D02*
X59639000Y-22226000D01*
X59599000Y-28781000D02*
X59599000Y-22273000D01*
X59559000Y-28733000D02*
X59559000Y-22321000D01*
X59519000Y-28683000D02*
X59519000Y-22371000D01*
X59479000Y-28633000D02*
X59479000Y-22421000D01*
X59439000Y-28581000D02*
X59439000Y-22473000D01*
X59399000Y-28527000D02*
X59399000Y-22527000D01*
X59359000Y-28472000D02*
X59359000Y-22582000D01*
X59319000Y-28416000D02*
X59319000Y-22638000D01*
X59279000Y-28357000D02*
X59279000Y-22697000D01*
X59239000Y-28297000D02*
X59239000Y-22757000D01*
X59199000Y-28236000D02*
X59199000Y-22818000D01*
X59159000Y-28172000D02*
X59159000Y-22882000D01*
X59119000Y-28106000D02*
X59119000Y-22948000D01*
X59079000Y-28037000D02*
X59079000Y-23017000D01*
X59039000Y-27966000D02*
X59039000Y-23088000D01*
X58999000Y-27892000D02*
X58999000Y-23162000D01*
X58959000Y-27816000D02*
X58959000Y-23238000D01*
X58919000Y-27736000D02*
X58919000Y-23318000D01*
X58879000Y-27652000D02*
X58879000Y-23402000D01*
X58839000Y-27564000D02*
X58839000Y-23490000D01*
X58799000Y-27471000D02*
X58799000Y-23583000D01*
X58759000Y-27373000D02*
X58759000Y-23681000D01*
X58719000Y-27269000D02*
X58719000Y-23785000D01*
X58679000Y-27157000D02*
X58679000Y-23897000D01*
X58639000Y-27037000D02*
X58639000Y-24017000D01*
X58599000Y-26905000D02*
X58599000Y-24149000D01*
X58559000Y-26757000D02*
X58559000Y-24297000D01*
X58519000Y-26589000D02*
X58519000Y-24465000D01*
X58479000Y-26389000D02*
X58479000Y-24665000D01*
X58439000Y-26126000D02*
X58439000Y-24928000D01*
X68999646Y-28402000D02*
X67999646Y-28402000D01*
X68499646Y-28902000D02*
X68499646Y-27902000D01*
%TO.C,D1*%
X46954000Y-46067000D02*
X70354000Y-46067000D01*
X70354000Y-46067000D02*
X70354000Y-38667000D01*
X70354000Y-38667000D02*
X46954000Y-38667000D01*
X46954000Y-38667000D02*
X46954000Y-46067000D01*
X51654000Y-42667000D02*
X51654000Y-46067000D01*
X46754000Y-39767000D02*
X46754000Y-38467000D01*
X46754000Y-38467000D02*
X47954000Y-38467000D01*
X51654000Y-39067000D02*
X51654000Y-38667000D01*
%TO.C,J1*%
X29591000Y-34544000D02*
X28321000Y-34544000D01*
X29591000Y-33274000D02*
X29591000Y-34544000D01*
X27278071Y-30354000D02*
X26881000Y-30354000D01*
X27278071Y-31114000D02*
X26881000Y-31114000D01*
X18221000Y-30354000D02*
X24221000Y-30354000D01*
X18221000Y-31114000D02*
X18221000Y-30354000D01*
X24221000Y-31114000D02*
X18221000Y-31114000D01*
X26881000Y-32004000D02*
X24221000Y-32004000D01*
X27211000Y-32894000D02*
X26881000Y-32894000D01*
X27211000Y-33654000D02*
X26881000Y-33654000D01*
X24221000Y-32994000D02*
X18221000Y-32994000D01*
X24221000Y-33114000D02*
X18221000Y-33114000D01*
X24221000Y-33234000D02*
X18221000Y-33234000D01*
X24221000Y-33354000D02*
X18221000Y-33354000D01*
X24221000Y-33474000D02*
X18221000Y-33474000D01*
X24221000Y-33594000D02*
X18221000Y-33594000D01*
X18221000Y-32894000D02*
X24221000Y-32894000D01*
X18221000Y-33654000D02*
X18221000Y-32894000D01*
X24221000Y-33654000D02*
X18221000Y-33654000D01*
X24221000Y-34604000D02*
X26881000Y-34604000D01*
X24221000Y-29404000D02*
X24221000Y-34604000D01*
X26881000Y-29404000D02*
X24221000Y-29404000D01*
X26881000Y-34604000D02*
X26881000Y-29404000D01*
%TO.C,J2*%
X27245000Y-38675000D02*
X28575000Y-38675000D01*
X27245000Y-40005000D02*
X27245000Y-38675000D01*
X27245000Y-41275000D02*
X29905000Y-41275000D01*
X29905000Y-41275000D02*
X29905000Y-43875000D01*
X27245000Y-41275000D02*
X27245000Y-43875000D01*
X27245000Y-43875000D02*
X29905000Y-43875000D01*
%TO.C,T1*%
X48455087Y-28242000D02*
G75*
G03*
X48455087Y-28242000I-4601087J0D01*
G01*
X45257567Y-28242000D02*
G75*
G03*
X45257567Y-28242000I-1403567J0D01*
G01*
%TO.C,U1*%
X38386000Y-38916000D02*
X39896000Y-38916000D01*
X38386000Y-42617000D02*
X39896000Y-42617000D01*
X39896000Y-45887000D02*
X39896000Y-35647000D01*
X38386000Y-35647000D02*
X43027000Y-35647000D01*
X38386000Y-45887000D02*
X43027000Y-45887000D01*
X43027000Y-45887000D02*
X43027000Y-35647000D01*
X38386000Y-45887000D02*
X38386000Y-35647000D01*
%TO.C,C1*%
D11*
X84712142Y-42564666D02*
X84759761Y-42612285D01*
X84807380Y-42755142D01*
X84807380Y-42850380D01*
X84759761Y-42993238D01*
X84664523Y-43088476D01*
X84569285Y-43136095D01*
X84378809Y-43183714D01*
X84235952Y-43183714D01*
X84045476Y-43136095D01*
X83950238Y-43088476D01*
X83855000Y-42993238D01*
X83807380Y-42850380D01*
X83807380Y-42755142D01*
X83855000Y-42612285D01*
X83902619Y-42564666D01*
X84807380Y-41612285D02*
X84807380Y-42183714D01*
X84807380Y-41898000D02*
X83807380Y-41898000D01*
X83950238Y-41993238D01*
X84045476Y-42088476D01*
X84093095Y-42183714D01*
%TO.C,C2*%
X74616333Y-19888142D02*
X74568714Y-19935761D01*
X74425857Y-19983380D01*
X74330619Y-19983380D01*
X74187761Y-19935761D01*
X74092523Y-19840523D01*
X74044904Y-19745285D01*
X73997285Y-19554809D01*
X73997285Y-19411952D01*
X74044904Y-19221476D01*
X74092523Y-19126238D01*
X74187761Y-19031000D01*
X74330619Y-18983380D01*
X74425857Y-18983380D01*
X74568714Y-19031000D01*
X74616333Y-19078619D01*
X74997285Y-19078619D02*
X75044904Y-19031000D01*
X75140142Y-18983380D01*
X75378238Y-18983380D01*
X75473476Y-19031000D01*
X75521095Y-19078619D01*
X75568714Y-19173857D01*
X75568714Y-19269095D01*
X75521095Y-19411952D01*
X74949666Y-19983380D01*
X75568714Y-19983380D01*
%TO.C,C3*%
X63353333Y-32134142D02*
X63305714Y-32181761D01*
X63162857Y-32229380D01*
X63067619Y-32229380D01*
X62924761Y-32181761D01*
X62829523Y-32086523D01*
X62781904Y-31991285D01*
X62734285Y-31800809D01*
X62734285Y-31657952D01*
X62781904Y-31467476D01*
X62829523Y-31372238D01*
X62924761Y-31277000D01*
X63067619Y-31229380D01*
X63162857Y-31229380D01*
X63305714Y-31277000D01*
X63353333Y-31324619D01*
X63686666Y-31229380D02*
X64305714Y-31229380D01*
X63972380Y-31610333D01*
X64115238Y-31610333D01*
X64210476Y-31657952D01*
X64258095Y-31705571D01*
X64305714Y-31800809D01*
X64305714Y-32038904D01*
X64258095Y-32134142D01*
X64210476Y-32181761D01*
X64115238Y-32229380D01*
X63829523Y-32229380D01*
X63734285Y-32181761D01*
X63686666Y-32134142D01*
%TO.C,D1*%
X58115904Y-38119380D02*
X58115904Y-37119380D01*
X58354000Y-37119380D01*
X58496857Y-37167000D01*
X58592095Y-37262238D01*
X58639714Y-37357476D01*
X58687333Y-37547952D01*
X58687333Y-37690809D01*
X58639714Y-37881285D01*
X58592095Y-37976523D01*
X58496857Y-38071761D01*
X58354000Y-38119380D01*
X58115904Y-38119380D01*
X59639714Y-38119380D02*
X59068285Y-38119380D01*
X59354000Y-38119380D02*
X59354000Y-37119380D01*
X59258761Y-37262238D01*
X59163523Y-37357476D01*
X59068285Y-37405095D01*
%TO.C,J1*%
X23602666Y-34996380D02*
X23602666Y-35710666D01*
X23555047Y-35853523D01*
X23459809Y-35948761D01*
X23316952Y-35996380D01*
X23221714Y-35996380D01*
X24602666Y-35996380D02*
X24031238Y-35996380D01*
X24316952Y-35996380D02*
X24316952Y-34996380D01*
X24221714Y-35139238D01*
X24126476Y-35234476D01*
X24031238Y-35282095D01*
%TO.C,J2*%
X28241666Y-37127380D02*
X28241666Y-37841666D01*
X28194047Y-37984523D01*
X28098809Y-38079761D01*
X27955952Y-38127380D01*
X27860714Y-38127380D01*
X28670238Y-37222619D02*
X28717857Y-37175000D01*
X28813095Y-37127380D01*
X29051190Y-37127380D01*
X29146428Y-37175000D01*
X29194047Y-37222619D01*
X29241666Y-37317857D01*
X29241666Y-37413095D01*
X29194047Y-37555952D01*
X28622619Y-38127380D01*
X29241666Y-38127380D01*
%TO.C,T1*%
X43092095Y-22194380D02*
X43663523Y-22194380D01*
X43377809Y-23194380D02*
X43377809Y-22194380D01*
X44520666Y-23194380D02*
X43949238Y-23194380D01*
X44234952Y-23194380D02*
X44234952Y-22194380D01*
X44139714Y-22337238D01*
X44044476Y-22432476D01*
X43949238Y-22480095D01*
%TO.C,U1*%
X36838380Y-41528904D02*
X37647904Y-41528904D01*
X37743142Y-41481285D01*
X37790761Y-41433666D01*
X37838380Y-41338428D01*
X37838380Y-41147952D01*
X37790761Y-41052714D01*
X37743142Y-41005095D01*
X37647904Y-40957476D01*
X36838380Y-40957476D01*
X37838380Y-39957476D02*
X37838380Y-40528904D01*
X37838380Y-40243190D02*
X36838380Y-40243190D01*
X36981238Y-40338428D01*
X37076476Y-40433666D01*
X37124095Y-40528904D01*
%TD*%
M02*
